<svg width="50" height="50" viewBox="0 0 50 50" fill="none" xmlns="http://www.w3.org/2000/svg">
<path d="M25 0C11.193 0 0 11.193 0 25C0 38.807 11.193 50 25 50C38.807 50 50 38.807 50 25C50 11.193 38.807 0 25 0ZM25 48.4375C12.0562 48.4375 1.5625 37.9437 1.5625 25.0008C1.5625 12.0562 12.0562 1.5625 25 1.5625C37.9438 1.5625 48.4375 12.0562 48.4375 25.0008C48.4375 37.9437 37.9438 48.4375 25 48.4375Z" fill="white"/>
<path d="M35.9375 16.4062H14.0625C13.2 16.4062 12.5 17.1063 12.5 17.9688V32.0312C12.5 32.8937 13.2 33.5938 14.0625 33.5938H35.9375C36.8 33.5938 37.5 32.8937 37.5 32.0312V17.9688C37.5 17.1063 36.8 16.4062 35.9375 16.4062ZM34.5352 17.9688L25 27.3438L15.5398 17.9688H34.5352ZM14.0625 32.0312V18.7547L21.5539 26.2461L15.6727 32.0312H14.0625ZM17.957 32.0312L22.7078 27.4008L23.9422 28.6344C24.5523 29.2445 25.5414 29.2445 26.1523 28.6344L27.3484 27.4383L32.0992 32.0312H17.957ZM35.9375 32.0312H34.4227L28.5422 26.2461L35.9375 18.85V32.0312Z" fill="white"/>
</svg>
