<svg width="50" height="50" viewBox="0 0 50 50" fill="none" xmlns="http://www.w3.org/2000/svg">
<circle cx="25" cy="25" r="25" fill="white"/>
<g clip-path="url(#clip0_794_131)">
<rect width="30" height="30" transform="translate(10 6)" fill="white"/>
<path d="M38.1179 40.6367H12V39.9781C12 32.7774 17.8582 26.9192 25.0589 26.9192C32.2597 26.9192 38.1179 32.7774 38.1179 39.9781V40.6367ZM13.3353 39.3195H36.7822C36.4401 33.1501 31.3123 28.2364 25.0589 28.2364C18.8056 28.2364 13.6781 33.1501 13.3353 39.3195Z" fill="black"/>
<path d="M25.0589 25.4795C21.0669 25.4795 17.8193 22.2317 17.8193 18.2396C17.8193 14.2479 21.0669 11 25.0589 11C29.051 11 32.2985 14.2479 32.2985 18.2396C32.2985 22.2317 29.051 25.4795 25.0589 25.4795ZM25.0589 12.3172C21.7933 12.3172 19.1365 14.974 19.1365 18.2396C19.1365 21.5052 21.7933 24.1623 25.0589 24.1623C28.3246 24.1623 30.9813 21.5056 30.9813 18.2396C30.9813 14.974 28.3246 12.3172 25.0589 12.3172Z" fill="black"/>
</g>
<defs>
<clipPath id="clip0_794_131">
<rect width="30" height="30" fill="white" transform="translate(10 6)"/>
</clipPath>
</defs>
</svg>
