<svg width="33" height="49" viewBox="0 0 33 49" fill="none" xmlns="http://www.w3.org/2000/svg">
<path d="M25.6719 29.2793H30.7988C30.6348 31.2344 30.0879 32.9775 29.1582 34.5088C28.2285 36.0264 26.9229 37.2227 25.2412 38.0977C23.5596 38.9727 21.5156 39.4102 19.1094 39.4102C17.2637 39.4102 15.6025 39.082 14.126 38.4258C12.6494 37.7559 11.3848 36.8125 10.332 35.5957C9.2793 34.3652 8.47266 32.8818 7.91211 31.1455C7.36523 29.4092 7.0918 27.4678 7.0918 25.3213V22.8398C7.0918 20.6934 7.37207 18.752 7.93262 17.0156C8.50684 15.2793 9.32715 13.7959 10.3936 12.5654C11.46 11.3213 12.7383 10.3711 14.2285 9.71484C15.7324 9.05859 17.4209 8.73047 19.2939 8.73047C21.6729 8.73047 23.6826 9.16797 25.3232 10.043C26.9639 10.918 28.2354 12.1279 29.1377 13.6729C30.0537 15.2178 30.6143 16.9883 30.8193 18.9844H25.6924C25.5557 17.6992 25.2549 16.5986 24.79 15.6826C24.3389 14.7666 23.6689 14.0693 22.7803 13.5908C21.8916 13.0986 20.7295 12.8525 19.2939 12.8525C18.1182 12.8525 17.0928 13.0713 16.2178 13.5088C15.3428 13.9463 14.6113 14.5889 14.0234 15.4365C13.4355 16.2842 12.9912 17.3301 12.6904 18.5742C12.4033 19.8047 12.2598 21.2129 12.2598 22.7988V25.3213C12.2598 26.8252 12.3896 28.1924 12.6494 29.4229C12.9229 30.6396 13.333 31.6855 13.8799 32.5605C14.4404 33.4355 15.1514 34.1123 16.0127 34.5908C16.874 35.0693 17.9062 35.3086 19.1094 35.3086C20.5723 35.3086 21.7549 35.0762 22.6572 34.6113C23.5732 34.1465 24.2637 33.4697 24.7285 32.5811C25.207 31.6787 25.5215 30.5781 25.6719 29.2793Z" fill="white"/>
<circle cx="4" cy="9" r="3.5" stroke="white"/>
</svg>
