<svg width="50" height="50" viewBox="0 0 51 50" fill="none" xmlns="http://www.w3.org/2000/svg">
<g clip-path="url(#clip0_765_339)">
<path d="M25.0205 0.274719C11.3805 0.274719 0.323242 11.5076 0.323242 25.3638C0.323242 37.0649 8.20825 46.8944 18.8747 49.6693C18.8676 46.7698 18.8583 43.2134 18.8528 42.1053C11.7257 43.6799 10.2219 39.0346 10.2219 39.0346C9.05674 36.0265 7.37733 35.2263 7.37733 35.2263C5.05249 33.6111 7.55241 33.644 7.55241 33.644C10.1248 33.8273 11.4798 36.3261 11.4798 36.3261C13.7646 40.3046 17.473 39.1543 18.9351 38.4896C19.1651 36.808 19.8286 35.6593 20.5618 35.0095C14.8716 34.3515 8.88935 32.1199 8.88935 22.1477C8.88935 19.3064 9.89041 16.9849 11.5292 15.1622C11.263 14.5064 10.386 11.8594 11.7773 8.27444C11.7773 8.27444 13.9287 7.57523 18.8242 10.9423C20.8681 10.3655 23.0595 10.0762 25.2367 10.0664C27.4139 10.0762 29.6071 10.3655 31.6547 10.9423C36.5448 7.57523 38.6929 8.27444 38.6929 8.27444C40.0875 11.8594 39.2105 14.5064 38.9443 15.1622C40.5869 16.9849 41.5808 19.3064 41.5808 22.1477C41.5808 32.1441 35.5876 34.3443 29.8826 34.9892C30.8013 35.7971 31.6202 37.3804 31.6202 39.8085C31.6202 41.7365 31.6114 46.1754 31.6032 49.5447C42.0457 46.6172 49.7178 36.9035 49.7178 25.3638C49.7178 11.5076 38.6605 0.274719 25.0205 0.274719Z" fill="white"/>
</g>
<defs>
<clipPath id="clip0_765_339">
<rect width="50" height="50" fill="white" transform="translate(0.0488281)"/>
</clipPath>
</defs>
</svg>
